<svg width="1200" height="630" viewBox="0 0 1200 630" xmlns="http://www.w3.org/2000/svg">
  <rect width="100%" height="100%" fill="white"/>
  <g class="dots">
    <circle cx="0" cy="0" r="2" fill="#1a1a1a" fill-opacity="0.4"/>
    <circle cx="35" cy="0" r="2" fill="#1a1a1a" fill-opacity="0.4"/>
    <circle cx="70" cy="0" r="2" fill="#1a1a1a" fill-opacity="0.4"/>
    <circle cx="105" cy="0" r="2" fill="#1a1a1a" fill-opacity="0.4"/>
    <circle cx="140" cy="0" r="2" fill="#1a1a1a" fill-opacity="0.4"/>
    <circle cx="175" cy="0" r="2" fill="#1a1a1a" fill-opacity="0.4"/>
    <circle cx="210" cy="0" r="2" fill="#1a1a1a" fill-opacity="0.4"/>
    <circle cx="245" cy="0" r="2" fill="#1a1a1a" fill-opacity="0.4"/>
    <circle cx="280" cy="0" r="2" fill="#1a1a1a" fill-opacity="0.4"/>
    <circle cx="315" cy="0" r="2" fill="#1a1a1a" fill-opacity="0.4"/>
    <circle cx="350" cy="0" r="2" fill="#1a1a1a" fill-opacity="0.4"/>
    <circle cx="385" cy="0" r="2" fill="#1a1a1a" fill-opacity="0.4"/>
    <circle cx="420" cy="0" r="2" fill="#1a1a1a" fill-opacity="0.4"/>
    <circle cx="455" cy="0" r="2" fill="#1a1a1a" fill-opacity="0.4"/>
    <circle cx="490" cy="0" r="2" fill="#1a1a1a" fill-opacity="0.4"/>
    <circle cx="525" cy="0" r="2" fill="#1a1a1a" fill-opacity="0.4"/>
    <circle cx="560" cy="0" r="2" fill="#1a1a1a" fill-opacity="0.4"/>
    <circle cx="595" cy="0" r="2" fill="#1a1a1a" fill-opacity="0.4"/>
    <circle cx="630" cy="0" r="2" fill="#1a1a1a" fill-opacity="0.4"/>
    <circle cx="665" cy="0" r="2" fill="#1a1a1a" fill-opacity="0.4"/>
    <circle cx="700" cy="0" r="2" fill="#1a1a1a" fill-opacity="0.4"/>
    <circle cx="735" cy="0" r="2" fill="#1a1a1a" fill-opacity="0.4"/>
    <circle cx="770" cy="0" r="2" fill="#1a1a1a" fill-opacity="0.4"/>
    <circle cx="805" cy="0" r="2" fill="#1a1a1a" fill-opacity="0.4"/>
    <circle cx="840" cy="0" r="2" fill="#1a1a1a" fill-opacity="0.4"/>
    <circle cx="875" cy="0" r="2" fill="#1a1a1a" fill-opacity="0.4"/>
    <circle cx="910" cy="0" r="2" fill="#1a1a1a" fill-opacity="0.4"/>
    <circle cx="945" cy="0" r="2" fill="#1a1a1a" fill-opacity="0.4"/>
    <circle cx="980" cy="0" r="2" fill="#1a1a1a" fill-opacity="0.4"/>
    <circle cx="1015" cy="0" r="2" fill="#1a1a1a" fill-opacity="0.4"/>
    <circle cx="1050" cy="0" r="2" fill="#1a1a1a" fill-opacity="0.4"/>
    <circle cx="1085" cy="0" r="2" fill="#1a1a1a" fill-opacity="0.4"/>
    <circle cx="1120" cy="0" r="2" fill="#1a1a1a" fill-opacity="0.4"/>
    <circle cx="1155" cy="0" r="2" fill="#1a1a1a" fill-opacity="0.4"/>
    <circle cx="1190" cy="0" r="2" fill="#1a1a1a" fill-opacity="0.4"/>
    <circle cx="0" cy="35" r="2" fill="#1a1a1a" fill-opacity="0.4"/>
    <circle cx="35" cy="35" r="2" fill="#1a1a1a" fill-opacity="0.4"/>
    <circle cx="70" cy="35" r="2" fill="#1a1a1a" fill-opacity="0.4"/>
    <circle cx="105" cy="35" r="2" fill="#1a1a1a" fill-opacity="0.4"/>
    <circle cx="140" cy="35" r="2" fill="#1a1a1a" fill-opacity="0.4"/>
    <circle cx="175" cy="35" r="2" fill="#1a1a1a" fill-opacity="0.4"/>
    <circle cx="210" cy="35" r="2" fill="#1a1a1a" fill-opacity="0.4"/>
    <circle cx="245" cy="35" r="2" fill="#1a1a1a" fill-opacity="0.4"/>
    <circle cx="280" cy="35" r="2" fill="#1a1a1a" fill-opacity="0.4"/>
    <circle cx="315" cy="35" r="2" fill="#1a1a1a" fill-opacity="0.4"/>
    <circle cx="350" cy="35" r="2" fill="#1a1a1a" fill-opacity="0.4"/>
    <circle cx="385" cy="35" r="2" fill="#1a1a1a" fill-opacity="0.4"/>
    <circle cx="420" cy="35" r="2" fill="#1a1a1a" fill-opacity="0.4"/>
    <circle cx="455" cy="35" r="2" fill="#1a1a1a" fill-opacity="0.4"/>
    <circle cx="490" cy="35" r="2" fill="#1a1a1a" fill-opacity="0.4"/>
    <circle cx="525" cy="35" r="2" fill="#1a1a1a" fill-opacity="0.4"/>
    <circle cx="560" cy="35" r="2" fill="#1a1a1a" fill-opacity="0.4"/>
    <circle cx="595" cy="35" r="2" fill="#1a1a1a" fill-opacity="0.4"/>
    <circle cx="630" cy="35" r="2" fill="#1a1a1a" fill-opacity="0.4"/>
    <circle cx="665" cy="35" r="2" fill="#1a1a1a" fill-opacity="0.4"/>
    <circle cx="700" cy="35" r="2" fill="#1a1a1a" fill-opacity="0.4"/>
    <circle cx="735" cy="35" r="2" fill="#1a1a1a" fill-opacity="0.4"/>
    <circle cx="770" cy="35" r="2" fill="#1a1a1a" fill-opacity="0.4"/>
    <circle cx="805" cy="35" r="2" fill="#1a1a1a" fill-opacity="0.4"/>
    <circle cx="840" cy="35" r="2" fill="#1a1a1a" fill-opacity="0.4"/>
    <circle cx="875" cy="35" r="2" fill="#1a1a1a" fill-opacity="0.4"/>
    <circle cx="910" cy="35" r="2" fill="#1a1a1a" fill-opacity="0.4"/>
    <circle cx="945" cy="35" r="2" fill="#1a1a1a" fill-opacity="0.4"/>
    <circle cx="980" cy="35" r="2" fill="#1a1a1a" fill-opacity="0.4"/>
    <circle cx="1015" cy="35" r="2" fill="#1a1a1a" fill-opacity="0.4"/>
    <circle cx="1050" cy="35" r="2" fill="#1a1a1a" fill-opacity="0.4"/>
    <circle cx="1085" cy="35" r="2" fill="#1a1a1a" fill-opacity="0.4"/>
    <circle cx="1120" cy="35" r="2" fill="#1a1a1a" fill-opacity="0.4"/>
    <circle cx="1155" cy="35" r="2" fill="#1a1a1a" fill-opacity="0.4"/>
    <circle cx="1190" cy="35" r="2" fill="#1a1a1a" fill-opacity="0.4"/>
    <circle cx="0" cy="70" r="2" fill="#1a1a1a" fill-opacity="0.4"/>
    <circle cx="35" cy="70" r="2" fill="#1a1a1a" fill-opacity="0.4"/>
    <circle cx="70" cy="70" r="2" fill="#1a1a1a" fill-opacity="0.4"/>
    <circle cx="105" cy="70" r="2" fill="#1a1a1a" fill-opacity="0.4"/>
    <circle cx="140" cy="70" r="2" fill="#1a1a1a" fill-opacity="0.4"/>
    <circle cx="175" cy="70" r="2" fill="#1a1a1a" fill-opacity="0.4"/>
    <circle cx="210" cy="70" r="2" fill="#1a1a1a" fill-opacity="0.4"/>
    <circle cx="245" cy="70" r="2" fill="#1a1a1a" fill-opacity="0.4"/>
    <circle cx="280" cy="70" r="2" fill="#1a1a1a" fill-opacity="0.4"/>
    <circle cx="315" cy="70" r="2" fill="#1a1a1a" fill-opacity="0.4"/>
    <circle cx="350" cy="70" r="2" fill="#1a1a1a" fill-opacity="0.4"/>
    <circle cx="385" cy="70" r="2" fill="#1a1a1a" fill-opacity="0.4"/>
    <circle cx="420" cy="70" r="2" fill="#1a1a1a" fill-opacity="0.4"/>
    <circle cx="455" cy="70" r="2" fill="#1a1a1a" fill-opacity="0.4"/>
    <circle cx="490" cy="70" r="2" fill="#1a1a1a" fill-opacity="0.4"/>
    <circle cx="525" cy="70" r="2" fill="#1a1a1a" fill-opacity="0.4"/>
    <circle cx="560" cy="70" r="2" fill="#1a1a1a" fill-opacity="0.4"/>
    <circle cx="595" cy="70" r="2" fill="#1a1a1a" fill-opacity="0.4"/>
    <circle cx="630" cy="70" r="2" fill="#1a1a1a" fill-opacity="0.4"/>
    <circle cx="665" cy="70" r="2" fill="#1a1a1a" fill-opacity="0.4"/>
    <circle cx="700" cy="70" r="2" fill="#1a1a1a" fill-opacity="0.4"/>
    <circle cx="735" cy="70" r="2" fill="#1a1a1a" fill-opacity="0.4"/>
    <circle cx="770" cy="70" r="2" fill="#1a1a1a" fill-opacity="0.4"/>
    <circle cx="805" cy="70" r="2" fill="#1a1a1a" fill-opacity="0.4"/>
    <circle cx="840" cy="70" r="2" fill="#1a1a1a" fill-opacity="0.4"/>
    <circle cx="875" cy="70" r="2" fill="#1a1a1a" fill-opacity="0.4"/>
    <circle cx="910" cy="70" r="2" fill="#1a1a1a" fill-opacity="0.4"/>
    <circle cx="945" cy="70" r="2" fill="#1a1a1a" fill-opacity="0.4"/>
    <circle cx="980" cy="70" r="2" fill="#1a1a1a" fill-opacity="0.4"/>
    <circle cx="1015" cy="70" r="2" fill="#1a1a1a" fill-opacity="0.4"/>
    <circle cx="1050" cy="70" r="2" fill="#1a1a1a" fill-opacity="0.4"/>
    <circle cx="1085" cy="70" r="2" fill="#1a1a1a" fill-opacity="0.4"/>
    <circle cx="1120" cy="70" r="2" fill="#1a1a1a" fill-opacity="0.4"/>
    <circle cx="1155" cy="70" r="2" fill="#1a1a1a" fill-opacity="0.4"/>
    <circle cx="1190" cy="70" r="2" fill="#1a1a1a" fill-opacity="0.4"/>
    <circle cx="0" cy="105" r="2" fill="#1a1a1a" fill-opacity="0.4"/>
    <circle cx="35" cy="105" r="2" fill="#1a1a1a" fill-opacity="0.4"/>
    <circle cx="70" cy="105" r="2" fill="#1a1a1a" fill-opacity="0.4"/>
    <circle cx="105" cy="105" r="2" fill="#1a1a1a" fill-opacity="0.4"/>
    <circle cx="140" cy="105" r="2" fill="#1a1a1a" fill-opacity="0.4"/>
    <circle cx="175" cy="105" r="2" fill="#1a1a1a" fill-opacity="0.4"/>
    <circle cx="210" cy="105" r="2" fill="#1a1a1a" fill-opacity="0.4"/>
    <circle cx="245" cy="105" r="2" fill="#1a1a1a" fill-opacity="0.4"/>
    <circle cx="280" cy="105" r="2" fill="#1a1a1a" fill-opacity="0.4"/>
    <circle cx="315" cy="105" r="2" fill="#1a1a1a" fill-opacity="0.4"/>
    <circle cx="350" cy="105" r="2" fill="#1a1a1a" fill-opacity="0.4"/>
    <circle cx="385" cy="105" r="2" fill="#1a1a1a" fill-opacity="0.4"/>
    <circle cx="420" cy="105" r="2" fill="#1a1a1a" fill-opacity="0.4"/>
    <circle cx="455" cy="105" r="2" fill="#1a1a1a" fill-opacity="0.4"/>
    <circle cx="490" cy="105" r="2" fill="#1a1a1a" fill-opacity="0.4"/>
    <circle cx="525" cy="105" r="2" fill="#1a1a1a" fill-opacity="0.4"/>
    <circle cx="560" cy="105" r="2" fill="#1a1a1a" fill-opacity="0.4"/>
    <circle cx="595" cy="105" r="2" fill="#1a1a1a" fill-opacity="0.4"/>
    <circle cx="630" cy="105" r="2" fill="#1a1a1a" fill-opacity="0.4"/>
    <circle cx="665" cy="105" r="2" fill="#1a1a1a" fill-opacity="0.4"/>
    <circle cx="700" cy="105" r="2" fill="#1a1a1a" fill-opacity="0.4"/>
    <circle cx="735" cy="105" r="2" fill="#1a1a1a" fill-opacity="0.4"/>
    <circle cx="770" cy="105" r="2" fill="#1a1a1a" fill-opacity="0.4"/>
    <circle cx="805" cy="105" r="2" fill="#1a1a1a" fill-opacity="0.4"/>
    <circle cx="840" cy="105" r="2" fill="#1a1a1a" fill-opacity="0.4"/>
    <circle cx="875" cy="105" r="2" fill="#1a1a1a" fill-opacity="0.4"/>
    <circle cx="910" cy="105" r="2" fill="#1a1a1a" fill-opacity="0.4"/>
    <circle cx="945" cy="105" r="2" fill="#1a1a1a" fill-opacity="0.4"/>
    <circle cx="980" cy="105" r="2" fill="#1a1a1a" fill-opacity="0.4"/>
    <circle cx="1015" cy="105" r="2" fill="#1a1a1a" fill-opacity="0.4"/>
    <circle cx="1050" cy="105" r="2" fill="#1a1a1a" fill-opacity="0.4"/>
    <circle cx="1085" cy="105" r="2" fill="#1a1a1a" fill-opacity="0.4"/>
    <circle cx="1120" cy="105" r="2" fill="#1a1a1a" fill-opacity="0.4"/>
    <circle cx="1155" cy="105" r="2" fill="#1a1a1a" fill-opacity="0.4"/>
    <circle cx="1190" cy="105" r="2" fill="#1a1a1a" fill-opacity="0.4"/>
    <circle cx="0" cy="140" r="2" fill="#1a1a1a" fill-opacity="0.4"/>
    <circle cx="35" cy="140" r="2" fill="#1a1a1a" fill-opacity="0.4"/>
    <circle cx="70" cy="140" r="2" fill="#1a1a1a" fill-opacity="0.4"/>
    <circle cx="105" cy="140" r="2" fill="#1a1a1a" fill-opacity="0.4"/>
    <circle cx="140" cy="140" r="2" fill="#1a1a1a" fill-opacity="0.4"/>
    <circle cx="175" cy="140" r="2" fill="#1a1a1a" fill-opacity="0.4"/>
    <circle cx="210" cy="140" r="2" fill="#1a1a1a" fill-opacity="0.4"/>
    <circle cx="245" cy="140" r="2" fill="#1a1a1a" fill-opacity="0.4"/>
    <circle cx="280" cy="140" r="2" fill="#1a1a1a" fill-opacity="0.4"/>
    <circle cx="315" cy="140" r="2" fill="#1a1a1a" fill-opacity="0.4"/>
    <circle cx="350" cy="140" r="2" fill="#1a1a1a" fill-opacity="0.4"/>
    <circle cx="385" cy="140" r="2" fill="#1a1a1a" fill-opacity="0.4"/>
    <circle cx="420" cy="140" r="2" fill="#1a1a1a" fill-opacity="0.4"/>
    <circle cx="455" cy="140" r="2" fill="#1a1a1a" fill-opacity="0.4"/>
    <circle cx="490" cy="140" r="2" fill="#1a1a1a" fill-opacity="0.4"/>
    <circle cx="525" cy="140" r="2" fill="#1a1a1a" fill-opacity="0.4"/>
    <circle cx="560" cy="140" r="2" fill="#1a1a1a" fill-opacity="0.4"/>
    <circle cx="595" cy="140" r="2" fill="#1a1a1a" fill-opacity="0.4"/>
    <circle cx="630" cy="140" r="2" fill="#1a1a1a" fill-opacity="0.4"/>
    <circle cx="665" cy="140" r="2" fill="#1a1a1a" fill-opacity="0.4"/>
    <circle cx="700" cy="140" r="2" fill="#1a1a1a" fill-opacity="0.4"/>
    <circle cx="735" cy="140" r="2" fill="#1a1a1a" fill-opacity="0.4"/>
    <circle cx="770" cy="140" r="2" fill="#1a1a1a" fill-opacity="0.4"/>
    <circle cx="805" cy="140" r="2" fill="#1a1a1a" fill-opacity="0.4"/>
    <circle cx="840" cy="140" r="2" fill="#1a1a1a" fill-opacity="0.4"/>
    <circle cx="875" cy="140" r="2" fill="#1a1a1a" fill-opacity="0.4"/>
    <circle cx="910" cy="140" r="2" fill="#1a1a1a" fill-opacity="0.4"/>
    <circle cx="945" cy="140" r="2" fill="#1a1a1a" fill-opacity="0.4"/>
    <circle cx="980" cy="140" r="2" fill="#1a1a1a" fill-opacity="0.4"/>
    <circle cx="1015" cy="140" r="2" fill="#1a1a1a" fill-opacity="0.4"/>
    <circle cx="1050" cy="140" r="2" fill="#1a1a1a" fill-opacity="0.4"/>
    <circle cx="1085" cy="140" r="2" fill="#1a1a1a" fill-opacity="0.4"/>
    <circle cx="1120" cy="140" r="2" fill="#1a1a1a" fill-opacity="0.4"/>
    <circle cx="1155" cy="140" r="2" fill="#1a1a1a" fill-opacity="0.4"/>
    <circle cx="1190" cy="140" r="2" fill="#1a1a1a" fill-opacity="0.4"/>
    <circle cx="0" cy="175" r="2" fill="#1a1a1a" fill-opacity="0.4"/>
    <circle cx="35" cy="175" r="2" fill="#1a1a1a" fill-opacity="0.4"/>
    <circle cx="70" cy="175" r="2" fill="#1a1a1a" fill-opacity="0.4"/>
    <circle cx="105" cy="175" r="2" fill="#1a1a1a" fill-opacity="0.4"/>
    <circle cx="140" cy="175" r="2" fill="#1a1a1a" fill-opacity="0.4"/>
    <circle cx="175" cy="175" r="2" fill="#1a1a1a" fill-opacity="0.4"/>
    <circle cx="210" cy="175" r="2" fill="#1a1a1a" fill-opacity="0.4"/>
    <circle cx="245" cy="175" r="2" fill="#1a1a1a" fill-opacity="0.4"/>
    <circle cx="280" cy="175" r="2" fill="#1a1a1a" fill-opacity="0.4"/>
    <circle cx="315" cy="175" r="2" fill="#1a1a1a" fill-opacity="0.4"/>
    <circle cx="350" cy="175" r="2" fill="#1a1a1a" fill-opacity="0.4"/>
    <circle cx="385" cy="175" r="2" fill="#1a1a1a" fill-opacity="0.4"/>
    <circle cx="420" cy="175" r="2" fill="#1a1a1a" fill-opacity="0.4"/>
    <circle cx="455" cy="175" r="2" fill="#1a1a1a" fill-opacity="0.4"/>
    <circle cx="490" cy="175" r="2" fill="#1a1a1a" fill-opacity="0.4"/>
    <circle cx="525" cy="175" r="2" fill="#1a1a1a" fill-opacity="0.4"/>
    <circle cx="560" cy="175" r="2" fill="#1a1a1a" fill-opacity="0.4"/>
    <circle cx="595" cy="175" r="2" fill="#1a1a1a" fill-opacity="0.4"/>
    <circle cx="630" cy="175" r="2" fill="#1a1a1a" fill-opacity="0.4"/>
    <circle cx="665" cy="175" r="2" fill="#1a1a1a" fill-opacity="0.4"/>
    <circle cx="700" cy="175" r="2" fill="#1a1a1a" fill-opacity="0.4"/>
    <circle cx="735" cy="175" r="2" fill="#1a1a1a" fill-opacity="0.4"/>
    <circle cx="770" cy="175" r="2" fill="#1a1a1a" fill-opacity="0.4"/>
    <circle cx="805" cy="175" r="2" fill="#1a1a1a" fill-opacity="0.4"/>
    <circle cx="840" cy="175" r="2" fill="#1a1a1a" fill-opacity="0.4"/>
    <circle cx="875" cy="175" r="2" fill="#1a1a1a" fill-opacity="0.4"/>
    <circle cx="910" cy="175" r="2" fill="#1a1a1a" fill-opacity="0.4"/>
    <circle cx="945" cy="175" r="2" fill="#1a1a1a" fill-opacity="0.4"/>
    <circle cx="980" cy="175" r="2" fill="#1a1a1a" fill-opacity="0.4"/>
    <circle cx="1015" cy="175" r="2" fill="#1a1a1a" fill-opacity="0.4"/>
    <circle cx="1050" cy="175" r="2" fill="#1a1a1a" fill-opacity="0.4"/>
    <circle cx="1085" cy="175" r="2" fill="#1a1a1a" fill-opacity="0.4"/>
    <circle cx="1120" cy="175" r="2" fill="#1a1a1a" fill-opacity="0.4"/>
    <circle cx="1155" cy="175" r="2" fill="#1a1a1a" fill-opacity="0.4"/>
    <circle cx="1190" cy="175" r="2" fill="#1a1a1a" fill-opacity="0.4"/>
    <circle cx="0" cy="210" r="2" fill="#1a1a1a" fill-opacity="0.4"/>
    <circle cx="35" cy="210" r="2" fill="#1a1a1a" fill-opacity="0.4"/>
    <circle cx="70" cy="210" r="2" fill="#1a1a1a" fill-opacity="0.4"/>
    <circle cx="105" cy="210" r="2" fill="#1a1a1a" fill-opacity="0.4"/>
    <circle cx="140" cy="210" r="2" fill="#1a1a1a" fill-opacity="0.4"/>
    <circle cx="175" cy="210" r="2" fill="#1a1a1a" fill-opacity="0.4"/>
    <circle cx="210" cy="210" r="2" fill="#1a1a1a" fill-opacity="0.4"/>
    <circle cx="245" cy="210" r="2" fill="#1a1a1a" fill-opacity="0.4"/>
    <circle cx="280" cy="210" r="2" fill="#1a1a1a" fill-opacity="0.4"/>
    <circle cx="315" cy="210" r="2" fill="#1a1a1a" fill-opacity="0.4"/>
    <circle cx="350" cy="210" r="2" fill="#1a1a1a" fill-opacity="0.4"/>
    <circle cx="385" cy="210" r="2" fill="#1a1a1a" fill-opacity="0.4"/>
    <circle cx="420" cy="210" r="2" fill="#1a1a1a" fill-opacity="0.4"/>
    <circle cx="455" cy="210" r="2" fill="#1a1a1a" fill-opacity="0.4"/>
    <circle cx="490" cy="210" r="2" fill="#1a1a1a" fill-opacity="0.4"/>
    <circle cx="525" cy="210" r="2" fill="#1a1a1a" fill-opacity="0.4"/>
    <circle cx="560" cy="210" r="2" fill="#1a1a1a" fill-opacity="0.4"/>
    <circle cx="595" cy="210" r="2" fill="#1a1a1a" fill-opacity="0.4"/>
    <circle cx="630" cy="210" r="2" fill="#1a1a1a" fill-opacity="0.4"/>
    <circle cx="665" cy="210" r="2" fill="#1a1a1a" fill-opacity="0.4"/>
    <circle cx="700" cy="210" r="2" fill="#1a1a1a" fill-opacity="0.4"/>
    <circle cx="735" cy="210" r="2" fill="#1a1a1a" fill-opacity="0.4"/>
    <circle cx="770" cy="210" r="2" fill="#1a1a1a" fill-opacity="0.4"/>
    <circle cx="805" cy="210" r="2" fill="#1a1a1a" fill-opacity="0.4"/>
    <circle cx="840" cy="210" r="2" fill="#1a1a1a" fill-opacity="0.4"/>
    <circle cx="875" cy="210" r="2" fill="#1a1a1a" fill-opacity="0.4"/>
    <circle cx="910" cy="210" r="2" fill="#1a1a1a" fill-opacity="0.4"/>
    <circle cx="945" cy="210" r="2" fill="#1a1a1a" fill-opacity="0.4"/>
    <circle cx="980" cy="210" r="2" fill="#1a1a1a" fill-opacity="0.4"/>
    <circle cx="1015" cy="210" r="2" fill="#1a1a1a" fill-opacity="0.4"/>
    <circle cx="1050" cy="210" r="2" fill="#1a1a1a" fill-opacity="0.4"/>
    <circle cx="1085" cy="210" r="2" fill="#1a1a1a" fill-opacity="0.4"/>
    <circle cx="1120" cy="210" r="2" fill="#1a1a1a" fill-opacity="0.4"/>
    <circle cx="1155" cy="210" r="2" fill="#1a1a1a" fill-opacity="0.4"/>
    <circle cx="1190" cy="210" r="2" fill="#1a1a1a" fill-opacity="0.4"/>
    <circle cx="0" cy="245" r="2" fill="#1a1a1a" fill-opacity="0.4"/>
    <circle cx="35" cy="245" r="2" fill="#1a1a1a" fill-opacity="0.4"/>
    <circle cx="70" cy="245" r="2" fill="#1a1a1a" fill-opacity="0.4"/>
    <circle cx="105" cy="245" r="2" fill="#1a1a1a" fill-opacity="0.4"/>
    <circle cx="140" cy="245" r="2" fill="#1a1a1a" fill-opacity="0.4"/>
    <circle cx="175" cy="245" r="2" fill="#1a1a1a" fill-opacity="0.4"/>
    <circle cx="210" cy="245" r="2" fill="#1a1a1a" fill-opacity="0.4"/>
    <circle cx="245" cy="245" r="2" fill="#1a1a1a" fill-opacity="0.4"/>
    <circle cx="280" cy="245" r="2" fill="#1a1a1a" fill-opacity="0.4"/>
    <circle cx="315" cy="245" r="2" fill="#1a1a1a" fill-opacity="0.4"/>
    <circle cx="350" cy="245" r="2" fill="#1a1a1a" fill-opacity="0.4"/>
    <circle cx="385" cy="245" r="2" fill="#1a1a1a" fill-opacity="0.4"/>
    <circle cx="420" cy="245" r="2" fill="#1a1a1a" fill-opacity="0.4"/>
    <circle cx="455" cy="245" r="2" fill="#1a1a1a" fill-opacity="0.4"/>
    <circle cx="490" cy="245" r="2" fill="#1a1a1a" fill-opacity="0.4"/>
    <circle cx="525" cy="245" r="2" fill="#1a1a1a" fill-opacity="0.4"/>
    <circle cx="560" cy="245" r="2" fill="#1a1a1a" fill-opacity="0.4"/>
    <circle cx="595" cy="245" r="2" fill="#1a1a1a" fill-opacity="0.4"/>
    <circle cx="630" cy="245" r="2" fill="#1a1a1a" fill-opacity="0.4"/>
    <circle cx="665" cy="245" r="2" fill="#1a1a1a" fill-opacity="0.4"/>
    <circle cx="700" cy="245" r="2" fill="#1a1a1a" fill-opacity="0.4"/>
    <circle cx="735" cy="245" r="2" fill="#1a1a1a" fill-opacity="0.4"/>
    <circle cx="770" cy="245" r="2" fill="#1a1a1a" fill-opacity="0.4"/>
    <circle cx="805" cy="245" r="2" fill="#1a1a1a" fill-opacity="0.4"/>
    <circle cx="840" cy="245" r="2" fill="#1a1a1a" fill-opacity="0.4"/>
    <circle cx="875" cy="245" r="2" fill="#1a1a1a" fill-opacity="0.4"/>
    <circle cx="910" cy="245" r="2" fill="#1a1a1a" fill-opacity="0.4"/>
    <circle cx="945" cy="245" r="2" fill="#1a1a1a" fill-opacity="0.4"/>
    <circle cx="980" cy="245" r="2" fill="#1a1a1a" fill-opacity="0.4"/>
    <circle cx="1015" cy="245" r="2" fill="#1a1a1a" fill-opacity="0.4"/>
    <circle cx="1050" cy="245" r="2" fill="#1a1a1a" fill-opacity="0.4"/>
    <circle cx="1085" cy="245" r="2" fill="#1a1a1a" fill-opacity="0.4"/>
    <circle cx="1120" cy="245" r="2" fill="#1a1a1a" fill-opacity="0.4"/>
    <circle cx="1155" cy="245" r="2" fill="#1a1a1a" fill-opacity="0.4"/>
    <circle cx="1190" cy="245" r="2" fill="#1a1a1a" fill-opacity="0.4"/>
    <circle cx="0" cy="280" r="2" fill="#1a1a1a" fill-opacity="0.4"/>
    <circle cx="35" cy="280" r="2" fill="#1a1a1a" fill-opacity="0.4"/>
    <circle cx="70" cy="280" r="2" fill="#1a1a1a" fill-opacity="0.4"/>
    <circle cx="105" cy="280" r="2" fill="#1a1a1a" fill-opacity="0.4"/>
    <circle cx="140" cy="280" r="2" fill="#1a1a1a" fill-opacity="0.4"/>
    <circle cx="175" cy="280" r="2" fill="#1a1a1a" fill-opacity="0.4"/>
    <circle cx="210" cy="280" r="2" fill="#1a1a1a" fill-opacity="0.4"/>
    <circle cx="245" cy="280" r="2" fill="#1a1a1a" fill-opacity="0.4"/>
    <circle cx="280" cy="280" r="2" fill="#1a1a1a" fill-opacity="0.4"/>
    <circle cx="315" cy="280" r="2" fill="#1a1a1a" fill-opacity="0.4"/>
    <circle cx="350" cy="280" r="2" fill="#1a1a1a" fill-opacity="0.4"/>
    <circle cx="385" cy="280" r="2" fill="#1a1a1a" fill-opacity="0.4"/>
    <circle cx="420" cy="280" r="2" fill="#1a1a1a" fill-opacity="0.4"/>
    <circle cx="455" cy="280" r="2" fill="#1a1a1a" fill-opacity="0.4"/>
    <circle cx="490" cy="280" r="2" fill="#1a1a1a" fill-opacity="0.4"/>
    <circle cx="525" cy="280" r="2" fill="#1a1a1a" fill-opacity="0.4"/>
    <circle cx="560" cy="280" r="2" fill="#1a1a1a" fill-opacity="0.4"/>
    <circle cx="595" cy="280" r="2" fill="#1a1a1a" fill-opacity="0.4"/>
    <circle cx="630" cy="280" r="2" fill="#1a1a1a" fill-opacity="0.4"/>
    <circle cx="665" cy="280" r="2" fill="#1a1a1a" fill-opacity="0.4"/>
    <circle cx="700" cy="280" r="2" fill="#1a1a1a" fill-opacity="0.4"/>
    <circle cx="735" cy="280" r="2" fill="#1a1a1a" fill-opacity="0.4"/>
    <circle cx="770" cy="280" r="2" fill="#1a1a1a" fill-opacity="0.4"/>
    <circle cx="805" cy="280" r="2" fill="#1a1a1a" fill-opacity="0.4"/>
    <circle cx="840" cy="280" r="2" fill="#1a1a1a" fill-opacity="0.4"/>
    <circle cx="875" cy="280" r="2" fill="#1a1a1a" fill-opacity="0.4"/>
    <circle cx="910" cy="280" r="2" fill="#1a1a1a" fill-opacity="0.4"/>
    <circle cx="945" cy="280" r="2" fill="#1a1a1a" fill-opacity="0.4"/>
    <circle cx="980" cy="280" r="2" fill="#1a1a1a" fill-opacity="0.4"/>
    <circle cx="1015" cy="280" r="2" fill="#1a1a1a" fill-opacity="0.4"/>
    <circle cx="1050" cy="280" r="2" fill="#1a1a1a" fill-opacity="0.4"/>
    <circle cx="1085" cy="280" r="2" fill="#1a1a1a" fill-opacity="0.4"/>
    <circle cx="1120" cy="280" r="2" fill="#1a1a1a" fill-opacity="0.4"/>
    <circle cx="1155" cy="280" r="2" fill="#1a1a1a" fill-opacity="0.4"/>
    <circle cx="1190" cy="280" r="2" fill="#1a1a1a" fill-opacity="0.4"/>
    <circle cx="0" cy="315" r="2" fill="#1a1a1a" fill-opacity="0.4"/>
    <circle cx="35" cy="315" r="2" fill="#1a1a1a" fill-opacity="0.4"/>
    <circle cx="70" cy="315" r="2" fill="#1a1a1a" fill-opacity="0.4"/>
    <circle cx="105" cy="315" r="2" fill="#1a1a1a" fill-opacity="0.4"/>
    <circle cx="140" cy="315" r="2" fill="#1a1a1a" fill-opacity="0.4"/>
    <circle cx="175" cy="315" r="2" fill="#1a1a1a" fill-opacity="0.4"/>
    <circle cx="210" cy="315" r="2" fill="#1a1a1a" fill-opacity="0.4"/>
    <circle cx="245" cy="315" r="2" fill="#1a1a1a" fill-opacity="0.4"/>
    <circle cx="280" cy="315" r="2" fill="#1a1a1a" fill-opacity="0.4"/>
    <circle cx="315" cy="315" r="2" fill="#1a1a1a" fill-opacity="0.4"/>
    <circle cx="350" cy="315" r="2" fill="#1a1a1a" fill-opacity="0.4"/>
    <circle cx="385" cy="315" r="2" fill="#1a1a1a" fill-opacity="0.4"/>
    <circle cx="420" cy="315" r="2" fill="#1a1a1a" fill-opacity="0.4"/>
    <circle cx="455" cy="315" r="2" fill="#1a1a1a" fill-opacity="0.4"/>
    <circle cx="490" cy="315" r="2" fill="#1a1a1a" fill-opacity="0.4"/>
    <circle cx="525" cy="315" r="2" fill="#1a1a1a" fill-opacity="0.4"/>
    <circle cx="560" cy="315" r="2" fill="#1a1a1a" fill-opacity="0.4"/>
    <circle cx="595" cy="315" r="2" fill="#1a1a1a" fill-opacity="0.4"/>
    <circle cx="630" cy="315" r="2" fill="#1a1a1a" fill-opacity="0.4"/>
    <circle cx="665" cy="315" r="2" fill="#1a1a1a" fill-opacity="0.4"/>
    <circle cx="700" cy="315" r="2" fill="#1a1a1a" fill-opacity="0.4"/>
    <circle cx="735" cy="315" r="2" fill="#1a1a1a" fill-opacity="0.4"/>
    <circle cx="770" cy="315" r="2" fill="#1a1a1a" fill-opacity="0.4"/>
    <circle cx="805" cy="315" r="2" fill="#1a1a1a" fill-opacity="0.4"/>
    <circle cx="840" cy="315" r="2" fill="#1a1a1a" fill-opacity="0.4"/>
    <circle cx="875" cy="315" r="2" fill="#1a1a1a" fill-opacity="0.4"/>
    <circle cx="910" cy="315" r="2" fill="#1a1a1a" fill-opacity="0.4"/>
    <circle cx="945" cy="315" r="2" fill="#1a1a1a" fill-opacity="0.4"/>
    <circle cx="980" cy="315" r="2" fill="#1a1a1a" fill-opacity="0.4"/>
    <circle cx="1015" cy="315" r="2" fill="#1a1a1a" fill-opacity="0.4"/>
    <circle cx="1050" cy="315" r="2" fill="#1a1a1a" fill-opacity="0.4"/>
    <circle cx="1085" cy="315" r="2" fill="#1a1a1a" fill-opacity="0.4"/>
    <circle cx="1120" cy="315" r="2" fill="#1a1a1a" fill-opacity="0.4"/>
    <circle cx="1155" cy="315" r="2" fill="#1a1a1a" fill-opacity="0.4"/>
    <circle cx="1190" cy="315" r="2" fill="#1a1a1a" fill-opacity="0.4"/>
    <circle cx="0" cy="350" r="2" fill="#1a1a1a" fill-opacity="0.4"/>
    <circle cx="35" cy="350" r="2" fill="#1a1a1a" fill-opacity="0.4"/>
    <circle cx="70" cy="350" r="2" fill="#1a1a1a" fill-opacity="0.4"/>
    <circle cx="105" cy="350" r="2" fill="#1a1a1a" fill-opacity="0.4"/>
    <circle cx="140" cy="350" r="2" fill="#1a1a1a" fill-opacity="0.4"/>
    <circle cx="175" cy="350" r="2" fill="#1a1a1a" fill-opacity="0.4"/>
    <circle cx="210" cy="350" r="2" fill="#1a1a1a" fill-opacity="0.4"/>
    <circle cx="245" cy="350" r="2" fill="#1a1a1a" fill-opacity="0.4"/>
    <circle cx="280" cy="350" r="2" fill="#1a1a1a" fill-opacity="0.4"/>
    <circle cx="315" cy="350" r="2" fill="#1a1a1a" fill-opacity="0.4"/>
    <circle cx="350" cy="350" r="2" fill="#1a1a1a" fill-opacity="0.4"/>
    <circle cx="385" cy="350" r="2" fill="#1a1a1a" fill-opacity="0.4"/>
    <circle cx="420" cy="350" r="2" fill="#1a1a1a" fill-opacity="0.4"/>
    <circle cx="455" cy="350" r="2" fill="#1a1a1a" fill-opacity="0.4"/>
    <circle cx="490" cy="350" r="2" fill="#1a1a1a" fill-opacity="0.4"/>
    <circle cx="525" cy="350" r="2" fill="#1a1a1a" fill-opacity="0.4"/>
    <circle cx="560" cy="350" r="2" fill="#1a1a1a" fill-opacity="0.4"/>
    <circle cx="595" cy="350" r="2" fill="#1a1a1a" fill-opacity="0.4"/>
    <circle cx="630" cy="350" r="2" fill="#1a1a1a" fill-opacity="0.4"/>
    <circle cx="665" cy="350" r="2" fill="#1a1a1a" fill-opacity="0.4"/>
    <circle cx="700" cy="350" r="2" fill="#1a1a1a" fill-opacity="0.4"/>
    <circle cx="735" cy="350" r="2" fill="#1a1a1a" fill-opacity="0.4"/>
    <circle cx="770" cy="350" r="2" fill="#1a1a1a" fill-opacity="0.4"/>
    <circle cx="805" cy="350" r="2" fill="#1a1a1a" fill-opacity="0.4"/>
    <circle cx="840" cy="350" r="2" fill="#1a1a1a" fill-opacity="0.4"/>
    <circle cx="875" cy="350" r="2" fill="#1a1a1a" fill-opacity="0.4"/>
    <circle cx="910" cy="350" r="2" fill="#1a1a1a" fill-opacity="0.4"/>
    <circle cx="945" cy="350" r="2" fill="#1a1a1a" fill-opacity="0.4"/>
    <circle cx="980" cy="350" r="2" fill="#1a1a1a" fill-opacity="0.4"/>
    <circle cx="1015" cy="350" r="2" fill="#1a1a1a" fill-opacity="0.4"/>
    <circle cx="1050" cy="350" r="2" fill="#1a1a1a" fill-opacity="0.4"/>
    <circle cx="1085" cy="350" r="2" fill="#1a1a1a" fill-opacity="0.4"/>
    <circle cx="1120" cy="350" r="2" fill="#1a1a1a" fill-opacity="0.4"/>
    <circle cx="1155" cy="350" r="2" fill="#1a1a1a" fill-opacity="0.4"/>
    <circle cx="1190" cy="350" r="2" fill="#1a1a1a" fill-opacity="0.4"/>
    <circle cx="0" cy="385" r="2" fill="#1a1a1a" fill-opacity="0.4"/>
    <circle cx="35" cy="385" r="2" fill="#1a1a1a" fill-opacity="0.4"/>
    <circle cx="70" cy="385" r="2" fill="#1a1a1a" fill-opacity="0.4"/>
    <circle cx="105" cy="385" r="2" fill="#1a1a1a" fill-opacity="0.4"/>
    <circle cx="140" cy="385" r="2" fill="#1a1a1a" fill-opacity="0.4"/>
    <circle cx="175" cy="385" r="2" fill="#1a1a1a" fill-opacity="0.4"/>
    <circle cx="210" cy="385" r="2" fill="#1a1a1a" fill-opacity="0.4"/>
    <circle cx="245" cy="385" r="2" fill="#1a1a1a" fill-opacity="0.4"/>
    <circle cx="280" cy="385" r="2" fill="#1a1a1a" fill-opacity="0.4"/>
    <circle cx="315" cy="385" r="2" fill="#1a1a1a" fill-opacity="0.4"/>
    <circle cx="350" cy="385" r="2" fill="#1a1a1a" fill-opacity="0.4"/>
    <circle cx="385" cy="385" r="2" fill="#1a1a1a" fill-opacity="0.4"/>
    <circle cx="420" cy="385" r="2" fill="#1a1a1a" fill-opacity="0.4"/>
    <circle cx="455" cy="385" r="2" fill="#1a1a1a" fill-opacity="0.4"/>
    <circle cx="490" cy="385" r="2" fill="#1a1a1a" fill-opacity="0.4"/>
    <circle cx="525" cy="385" r="2" fill="#1a1a1a" fill-opacity="0.4"/>
    <circle cx="560" cy="385" r="2" fill="#1a1a1a" fill-opacity="0.4"/>
    <circle cx="595" cy="385" r="2" fill="#1a1a1a" fill-opacity="0.4"/>
    <circle cx="630" cy="385" r="2" fill="#1a1a1a" fill-opacity="0.4"/>
    <circle cx="665" cy="385" r="2" fill="#1a1a1a" fill-opacity="0.4"/>
    <circle cx="700" cy="385" r="2" fill="#1a1a1a" fill-opacity="0.4"/>
    <circle cx="735" cy="385" r="2" fill="#1a1a1a" fill-opacity="0.4"/>
    <circle cx="770" cy="385" r="2" fill="#1a1a1a" fill-opacity="0.4"/>
    <circle cx="805" cy="385" r="2" fill="#1a1a1a" fill-opacity="0.4"/>
    <circle cx="840" cy="385" r="2" fill="#1a1a1a" fill-opacity="0.4"/>
    <circle cx="875" cy="385" r="2" fill="#1a1a1a" fill-opacity="0.4"/>
    <circle cx="910" cy="385" r="2" fill="#1a1a1a" fill-opacity="0.4"/>
    <circle cx="945" cy="385" r="2" fill="#1a1a1a" fill-opacity="0.4"/>
    <circle cx="980" cy="385" r="2" fill="#1a1a1a" fill-opacity="0.4"/>
    <circle cx="1015" cy="385" r="2" fill="#1a1a1a" fill-opacity="0.4"/>
    <circle cx="1050" cy="385" r="2" fill="#1a1a1a" fill-opacity="0.4"/>
    <circle cx="1085" cy="385" r="2" fill="#1a1a1a" fill-opacity="0.4"/>
    <circle cx="1120" cy="385" r="2" fill="#1a1a1a" fill-opacity="0.4"/>
    <circle cx="1155" cy="385" r="2" fill="#1a1a1a" fill-opacity="0.4"/>
    <circle cx="1190" cy="385" r="2" fill="#1a1a1a" fill-opacity="0.4"/>
    <circle cx="0" cy="420" r="2" fill="#1a1a1a" fill-opacity="0.4"/>
    <circle cx="35" cy="420" r="2" fill="#1a1a1a" fill-opacity="0.4"/>
    <circle cx="70" cy="420" r="2" fill="#1a1a1a" fill-opacity="0.4"/>
    <circle cx="105" cy="420" r="2" fill="#1a1a1a" fill-opacity="0.4"/>
    <circle cx="140" cy="420" r="2" fill="#1a1a1a" fill-opacity="0.4"/>
    <circle cx="175" cy="420" r="2" fill="#1a1a1a" fill-opacity="0.4"/>
    <circle cx="210" cy="420" r="2" fill="#1a1a1a" fill-opacity="0.4"/>
    <circle cx="245" cy="420" r="2" fill="#1a1a1a" fill-opacity="0.4"/>
    <circle cx="280" cy="420" r="2" fill="#1a1a1a" fill-opacity="0.4"/>
    <circle cx="315" cy="420" r="2" fill="#1a1a1a" fill-opacity="0.4"/>
    <circle cx="350" cy="420" r="2" fill="#1a1a1a" fill-opacity="0.4"/>
    <circle cx="385" cy="420" r="2" fill="#1a1a1a" fill-opacity="0.4"/>
    <circle cx="420" cy="420" r="2" fill="#1a1a1a" fill-opacity="0.4"/>
    <circle cx="455" cy="420" r="2" fill="#1a1a1a" fill-opacity="0.4"/>
    <circle cx="490" cy="420" r="2" fill="#1a1a1a" fill-opacity="0.4"/>
    <circle cx="525" cy="420" r="2" fill="#1a1a1a" fill-opacity="0.4"/>
    <circle cx="560" cy="420" r="2" fill="#1a1a1a" fill-opacity="0.4"/>
    <circle cx="595" cy="420" r="2" fill="#1a1a1a" fill-opacity="0.4"/>
    <circle cx="630" cy="420" r="2" fill="#1a1a1a" fill-opacity="0.4"/>
    <circle cx="665" cy="420" r="2" fill="#1a1a1a" fill-opacity="0.4"/>
    <circle cx="700" cy="420" r="2" fill="#1a1a1a" fill-opacity="0.4"/>
    <circle cx="735" cy="420" r="2" fill="#1a1a1a" fill-opacity="0.4"/>
    <circle cx="770" cy="420" r="2" fill="#1a1a1a" fill-opacity="0.4"/>
    <circle cx="805" cy="420" r="2" fill="#1a1a1a" fill-opacity="0.4"/>
    <circle cx="840" cy="420" r="2" fill="#1a1a1a" fill-opacity="0.4"/>
    <circle cx="875" cy="420" r="2" fill="#1a1a1a" fill-opacity="0.4"/>
    <circle cx="910" cy="420" r="2" fill="#1a1a1a" fill-opacity="0.4"/>
    <circle cx="945" cy="420" r="2" fill="#1a1a1a" fill-opacity="0.4"/>
    <circle cx="980" cy="420" r="2" fill="#1a1a1a" fill-opacity="0.4"/>
    <circle cx="1015" cy="420" r="2" fill="#1a1a1a" fill-opacity="0.4"/>
    <circle cx="1050" cy="420" r="2" fill="#1a1a1a" fill-opacity="0.4"/>
    <circle cx="1085" cy="420" r="2" fill="#1a1a1a" fill-opacity="0.4"/>
    <circle cx="1120" cy="420" r="2" fill="#1a1a1a" fill-opacity="0.4"/>
    <circle cx="1155" cy="420" r="2" fill="#1a1a1a" fill-opacity="0.4"/>
    <circle cx="1190" cy="420" r="2" fill="#1a1a1a" fill-opacity="0.4"/>
    <circle cx="0" cy="455" r="2" fill="#1a1a1a" fill-opacity="0.4"/>
    <circle cx="35" cy="455" r="2" fill="#1a1a1a" fill-opacity="0.4"/>
    <circle cx="70" cy="455" r="2" fill="#1a1a1a" fill-opacity="0.4"/>
    <circle cx="105" cy="455" r="2" fill="#1a1a1a" fill-opacity="0.4"/>
    <circle cx="140" cy="455" r="2" fill="#1a1a1a" fill-opacity="0.4"/>
    <circle cx="175" cy="455" r="2" fill="#1a1a1a" fill-opacity="0.4"/>
    <circle cx="210" cy="455" r="2" fill="#1a1a1a" fill-opacity="0.4"/>
    <circle cx="245" cy="455" r="2" fill="#1a1a1a" fill-opacity="0.4"/>
    <circle cx="280" cy="455" r="2" fill="#1a1a1a" fill-opacity="0.4"/>
    <circle cx="315" cy="455" r="2" fill="#1a1a1a" fill-opacity="0.4"/>
    <circle cx="350" cy="455" r="2" fill="#1a1a1a" fill-opacity="0.4"/>
    <circle cx="385" cy="455" r="2" fill="#1a1a1a" fill-opacity="0.4"/>
    <circle cx="420" cy="455" r="2" fill="#1a1a1a" fill-opacity="0.4"/>
    <circle cx="455" cy="455" r="2" fill="#1a1a1a" fill-opacity="0.4"/>
    <circle cx="490" cy="455" r="2" fill="#1a1a1a" fill-opacity="0.4"/>
    <circle cx="525" cy="455" r="2" fill="#1a1a1a" fill-opacity="0.4"/>
    <circle cx="560" cy="455" r="2" fill="#1a1a1a" fill-opacity="0.4"/>
    <circle cx="595" cy="455" r="2" fill="#1a1a1a" fill-opacity="0.4"/>
    <circle cx="630" cy="455" r="2" fill="#1a1a1a" fill-opacity="0.4"/>
    <circle cx="665" cy="455" r="2" fill="#1a1a1a" fill-opacity="0.4"/>
    <circle cx="700" cy="455" r="2" fill="#1a1a1a" fill-opacity="0.4"/>
    <circle cx="735" cy="455" r="2" fill="#1a1a1a" fill-opacity="0.4"/>
    <circle cx="770" cy="455" r="2" fill="#1a1a1a" fill-opacity="0.4"/>
    <circle cx="805" cy="455" r="2" fill="#1a1a1a" fill-opacity="0.4"/>
    <circle cx="840" cy="455" r="2" fill="#1a1a1a" fill-opacity="0.4"/>
    <circle cx="875" cy="455" r="2" fill="#1a1a1a" fill-opacity="0.4"/>
    <circle cx="910" cy="455" r="2" fill="#1a1a1a" fill-opacity="0.4"/>
    <circle cx="945" cy="455" r="2" fill="#1a1a1a" fill-opacity="0.4"/>
    <circle cx="980" cy="455" r="2" fill="#1a1a1a" fill-opacity="0.4"/>
    <circle cx="1015" cy="455" r="2" fill="#1a1a1a" fill-opacity="0.4"/>
    <circle cx="1050" cy="455" r="2" fill="#1a1a1a" fill-opacity="0.4"/>
    <circle cx="1085" cy="455" r="2" fill="#1a1a1a" fill-opacity="0.4"/>
    <circle cx="1120" cy="455" r="2" fill="#1a1a1a" fill-opacity="0.4"/>
    <circle cx="1155" cy="455" r="2" fill="#1a1a1a" fill-opacity="0.4"/>
    <circle cx="1190" cy="455" r="2" fill="#1a1a1a" fill-opacity="0.4"/>
    <circle cx="0" cy="490" r="2" fill="#1a1a1a" fill-opacity="0.4"/>
    <circle cx="35" cy="490" r="2" fill="#1a1a1a" fill-opacity="0.4"/>
    <circle cx="70" cy="490" r="2" fill="#1a1a1a" fill-opacity="0.4"/>
    <circle cx="105" cy="490" r="2" fill="#1a1a1a" fill-opacity="0.4"/>
    <circle cx="140" cy="490" r="2" fill="#1a1a1a" fill-opacity="0.4"/>
    <circle cx="175" cy="490" r="2" fill="#1a1a1a" fill-opacity="0.4"/>
    <circle cx="210" cy="490" r="2" fill="#1a1a1a" fill-opacity="0.4"/>
    <circle cx="245" cy="490" r="2" fill="#1a1a1a" fill-opacity="0.4"/>
    <circle cx="280" cy="490" r="2" fill="#1a1a1a" fill-opacity="0.4"/>
    <circle cx="315" cy="490" r="2" fill="#1a1a1a" fill-opacity="0.4"/>
    <circle cx="350" cy="490" r="2" fill="#1a1a1a" fill-opacity="0.4"/>
    <circle cx="385" cy="490" r="2" fill="#1a1a1a" fill-opacity="0.4"/>
    <circle cx="420" cy="490" r="2" fill="#1a1a1a" fill-opacity="0.4"/>
    <circle cx="455" cy="490" r="2" fill="#1a1a1a" fill-opacity="0.4"/>
    <circle cx="490" cy="490" r="2" fill="#1a1a1a" fill-opacity="0.4"/>
    <circle cx="525" cy="490" r="2" fill="#1a1a1a" fill-opacity="0.4"/>
    <circle cx="560" cy="490" r="2" fill="#1a1a1a" fill-opacity="0.4"/>
    <circle cx="595" cy="490" r="2" fill="#1a1a1a" fill-opacity="0.4"/>
    <circle cx="630" cy="490" r="2" fill="#1a1a1a" fill-opacity="0.4"/>
    <circle cx="665" cy="490" r="2" fill="#1a1a1a" fill-opacity="0.4"/>
    <circle cx="700" cy="490" r="2" fill="#1a1a1a" fill-opacity="0.4"/>
    <circle cx="735" cy="490" r="2" fill="#1a1a1a" fill-opacity="0.4"/>
    <circle cx="770" cy="490" r="2" fill="#1a1a1a" fill-opacity="0.4"/>
    <circle cx="805" cy="490" r="2" fill="#1a1a1a" fill-opacity="0.4"/>
    <circle cx="840" cy="490" r="2" fill="#1a1a1a" fill-opacity="0.4"/>
    <circle cx="875" cy="490" r="2" fill="#1a1a1a" fill-opacity="0.4"/>
    <circle cx="910" cy="490" r="2" fill="#1a1a1a" fill-opacity="0.4"/>
    <circle cx="945" cy="490" r="2" fill="#1a1a1a" fill-opacity="0.4"/>
    <circle cx="980" cy="490" r="2" fill="#1a1a1a" fill-opacity="0.4"/>
    <circle cx="1015" cy="490" r="2" fill="#1a1a1a" fill-opacity="0.4"/>
    <circle cx="1050" cy="490" r="2" fill="#1a1a1a" fill-opacity="0.4"/>
    <circle cx="1085" cy="490" r="2" fill="#1a1a1a" fill-opacity="0.4"/>
    <circle cx="1120" cy="490" r="2" fill="#1a1a1a" fill-opacity="0.4"/>
    <circle cx="1155" cy="490" r="2" fill="#1a1a1a" fill-opacity="0.4"/>
    <circle cx="1190" cy="490" r="2" fill="#1a1a1a" fill-opacity="0.4"/>
    <circle cx="0" cy="525" r="2" fill="#1a1a1a" fill-opacity="0.4"/>
    <circle cx="35" cy="525" r="2" fill="#1a1a1a" fill-opacity="0.4"/>
    <circle cx="70" cy="525" r="2" fill="#1a1a1a" fill-opacity="0.4"/>
    <circle cx="105" cy="525" r="2" fill="#1a1a1a" fill-opacity="0.4"/>
    <circle cx="140" cy="525" r="2" fill="#1a1a1a" fill-opacity="0.4"/>
    <circle cx="175" cy="525" r="2" fill="#1a1a1a" fill-opacity="0.4"/>
    <circle cx="210" cy="525" r="2" fill="#1a1a1a" fill-opacity="0.4"/>
    <circle cx="245" cy="525" r="2" fill="#1a1a1a" fill-opacity="0.4"/>
    <circle cx="280" cy="525" r="2" fill="#1a1a1a" fill-opacity="0.4"/>
    <circle cx="315" cy="525" r="2" fill="#1a1a1a" fill-opacity="0.4"/>
    <circle cx="350" cy="525" r="2" fill="#1a1a1a" fill-opacity="0.4"/>
    <circle cx="385" cy="525" r="2" fill="#1a1a1a" fill-opacity="0.4"/>
    <circle cx="420" cy="525" r="2" fill="#1a1a1a" fill-opacity="0.4"/>
    <circle cx="455" cy="525" r="2" fill="#1a1a1a" fill-opacity="0.4"/>
    <circle cx="490" cy="525" r="2" fill="#1a1a1a" fill-opacity="0.4"/>
    <circle cx="525" cy="525" r="2" fill="#1a1a1a" fill-opacity="0.4"/>
    <circle cx="560" cy="525" r="2" fill="#1a1a1a" fill-opacity="0.4"/>
    <circle cx="595" cy="525" r="2" fill="#1a1a1a" fill-opacity="0.4"/>
    <circle cx="630" cy="525" r="2" fill="#1a1a1a" fill-opacity="0.4"/>
    <circle cx="665" cy="525" r="2" fill="#1a1a1a" fill-opacity="0.4"/>
    <circle cx="700" cy="525" r="2" fill="#1a1a1a" fill-opacity="0.4"/>
    <circle cx="735" cy="525" r="2" fill="#1a1a1a" fill-opacity="0.4"/>
    <circle cx="770" cy="525" r="2" fill="#1a1a1a" fill-opacity="0.4"/>
    <circle cx="805" cy="525" r="2" fill="#1a1a1a" fill-opacity="0.4"/>
    <circle cx="840" cy="525" r="2" fill="#1a1a1a" fill-opacity="0.4"/>
    <circle cx="875" cy="525" r="2" fill="#1a1a1a" fill-opacity="0.4"/>
    <circle cx="910" cy="525" r="2" fill="#1a1a1a" fill-opacity="0.4"/>
    <circle cx="945" cy="525" r="2" fill="#1a1a1a" fill-opacity="0.4"/>
    <circle cx="980" cy="525" r="2" fill="#1a1a1a" fill-opacity="0.4"/>
    <circle cx="1015" cy="525" r="2" fill="#1a1a1a" fill-opacity="0.4"/>
    <circle cx="1050" cy="525" r="2" fill="#1a1a1a" fill-opacity="0.4"/>
    <circle cx="1085" cy="525" r="2" fill="#1a1a1a" fill-opacity="0.4"/>
    <circle cx="1120" cy="525" r="2" fill="#1a1a1a" fill-opacity="0.4"/>
    <circle cx="1155" cy="525" r="2" fill="#1a1a1a" fill-opacity="0.4"/>
    <circle cx="1190" cy="525" r="2" fill="#1a1a1a" fill-opacity="0.4"/>
    <circle cx="0" cy="560" r="2" fill="#1a1a1a" fill-opacity="0.4"/>
    <circle cx="35" cy="560" r="2" fill="#1a1a1a" fill-opacity="0.4"/>
    <circle cx="70" cy="560" r="2" fill="#1a1a1a" fill-opacity="0.4"/>
    <circle cx="105" cy="560" r="2" fill="#1a1a1a" fill-opacity="0.4"/>
    <circle cx="140" cy="560" r="2" fill="#1a1a1a" fill-opacity="0.4"/>
    <circle cx="175" cy="560" r="2" fill="#1a1a1a" fill-opacity="0.4"/>
    <circle cx="210" cy="560" r="2" fill="#1a1a1a" fill-opacity="0.4"/>
    <circle cx="245" cy="560" r="2" fill="#1a1a1a" fill-opacity="0.4"/>
    <circle cx="280" cy="560" r="2" fill="#1a1a1a" fill-opacity="0.4"/>
    <circle cx="315" cy="560" r="2" fill="#1a1a1a" fill-opacity="0.4"/>
    <circle cx="350" cy="560" r="2" fill="#1a1a1a" fill-opacity="0.4"/>
    <circle cx="385" cy="560" r="2" fill="#1a1a1a" fill-opacity="0.4"/>
    <circle cx="420" cy="560" r="2" fill="#1a1a1a" fill-opacity="0.4"/>
    <circle cx="455" cy="560" r="2" fill="#1a1a1a" fill-opacity="0.4"/>
    <circle cx="490" cy="560" r="2" fill="#1a1a1a" fill-opacity="0.4"/>
    <circle cx="525" cy="560" r="2" fill="#1a1a1a" fill-opacity="0.4"/>
    <circle cx="560" cy="560" r="2" fill="#1a1a1a" fill-opacity="0.4"/>
    <circle cx="595" cy="560" r="2" fill="#1a1a1a" fill-opacity="0.4"/>
    <circle cx="630" cy="560" r="2" fill="#1a1a1a" fill-opacity="0.4"/>
    <circle cx="665" cy="560" r="2" fill="#1a1a1a" fill-opacity="0.4"/>
    <circle cx="700" cy="560" r="2" fill="#1a1a1a" fill-opacity="0.4"/>
    <circle cx="735" cy="560" r="2" fill="#1a1a1a" fill-opacity="0.4"/>
    <circle cx="770" cy="560" r="2" fill="#1a1a1a" fill-opacity="0.4"/>
    <circle cx="805" cy="560" r="2" fill="#1a1a1a" fill-opacity="0.4"/>
    <circle cx="840" cy="560" r="2" fill="#1a1a1a" fill-opacity="0.4"/>
    <circle cx="875" cy="560" r="2" fill="#1a1a1a" fill-opacity="0.4"/>
    <circle cx="910" cy="560" r="2" fill="#1a1a1a" fill-opacity="0.4"/>
    <circle cx="945" cy="560" r="2" fill="#1a1a1a" fill-opacity="0.4"/>
    <circle cx="980" cy="560" r="2" fill="#1a1a1a" fill-opacity="0.4"/>
    <circle cx="1015" cy="560" r="2" fill="#1a1a1a" fill-opacity="0.4"/>
    <circle cx="1050" cy="560" r="2" fill="#1a1a1a" fill-opacity="0.4"/>
    <circle cx="1085" cy="560" r="2" fill="#1a1a1a" fill-opacity="0.4"/>
    <circle cx="1120" cy="560" r="2" fill="#1a1a1a" fill-opacity="0.4"/>
    <circle cx="1155" cy="560" r="2" fill="#1a1a1a" fill-opacity="0.4"/>
    <circle cx="1190" cy="560" r="2" fill="#1a1a1a" fill-opacity="0.4"/>
    <circle cx="0" cy="595" r="2" fill="#1a1a1a" fill-opacity="0.4"/>
    <circle cx="35" cy="595" r="2" fill="#1a1a1a" fill-opacity="0.4"/>
    <circle cx="70" cy="595" r="2" fill="#1a1a1a" fill-opacity="0.4"/>
    <circle cx="105" cy="595" r="2" fill="#1a1a1a" fill-opacity="0.4"/>
    <circle cx="140" cy="595" r="2" fill="#1a1a1a" fill-opacity="0.4"/>
    <circle cx="175" cy="595" r="2" fill="#1a1a1a" fill-opacity="0.4"/>
    <circle cx="210" cy="595" r="2" fill="#1a1a1a" fill-opacity="0.4"/>
    <circle cx="245" cy="595" r="2" fill="#1a1a1a" fill-opacity="0.4"/>
    <circle cx="280" cy="595" r="2" fill="#1a1a1a" fill-opacity="0.4"/>
    <circle cx="315" cy="595" r="2" fill="#1a1a1a" fill-opacity="0.4"/>
    <circle cx="350" cy="595" r="2" fill="#1a1a1a" fill-opacity="0.4"/>
    <circle cx="385" cy="595" r="2" fill="#1a1a1a" fill-opacity="0.4"/>
    <circle cx="420" cy="595" r="2" fill="#1a1a1a" fill-opacity="0.4"/>
    <circle cx="455" cy="595" r="2" fill="#1a1a1a" fill-opacity="0.4"/>
    <circle cx="490" cy="595" r="2" fill="#1a1a1a" fill-opacity="0.4"/>
    <circle cx="525" cy="595" r="2" fill="#1a1a1a" fill-opacity="0.4"/>
    <circle cx="560" cy="595" r="2" fill="#1a1a1a" fill-opacity="0.4"/>
    <circle cx="595" cy="595" r="2" fill="#1a1a1a" fill-opacity="0.4"/>
    <circle cx="630" cy="595" r="2" fill="#1a1a1a" fill-opacity="0.4"/>
    <circle cx="665" cy="595" r="2" fill="#1a1a1a" fill-opacity="0.4"/>
    <circle cx="700" cy="595" r="2" fill="#1a1a1a" fill-opacity="0.4"/>
    <circle cx="735" cy="595" r="2" fill="#1a1a1a" fill-opacity="0.4"/>
    <circle cx="770" cy="595" r="2" fill="#1a1a1a" fill-opacity="0.4"/>
    <circle cx="805" cy="595" r="2" fill="#1a1a1a" fill-opacity="0.4"/>
    <circle cx="840" cy="595" r="2" fill="#1a1a1a" fill-opacity="0.4"/>
    <circle cx="875" cy="595" r="2" fill="#1a1a1a" fill-opacity="0.4"/>
    <circle cx="910" cy="595" r="2" fill="#1a1a1a" fill-opacity="0.4"/>
    <circle cx="945" cy="595" r="2" fill="#1a1a1a" fill-opacity="0.4"/>
    <circle cx="980" cy="595" r="2" fill="#1a1a1a" fill-opacity="0.4"/>
    <circle cx="1015" cy="595" r="2" fill="#1a1a1a" fill-opacity="0.4"/>
    <circle cx="1050" cy="595" r="2" fill="#1a1a1a" fill-opacity="0.4"/>
    <circle cx="1085" cy="595" r="2" fill="#1a1a1a" fill-opacity="0.4"/>
    <circle cx="1120" cy="595" r="2" fill="#1a1a1a" fill-opacity="0.4"/>
    <circle cx="1155" cy="595" r="2" fill="#1a1a1a" fill-opacity="0.4"/>
    <circle cx="1190" cy="595" r="2" fill="#1a1a1a" fill-opacity="0.4"/>
  </g>
  <g transform="translate(460, 175)">
    <svg width="280" height="280" viewBox="0 0 52 52">
      
  
  <g transform="translate(16, 16)">
    <g transform="rotate(30) scale(0.5)">

      <!-- LEFT BEAN HALF - shadows go outward (left) -->
      <g transform="translate(-1, 0)">
        <!-- Magenta shadow - upper left -->
        <g transform="translate(-2, -5)">
          <path fill="#FF00FF" d="M-2.5,-23C-1.7,-23.2 -0.8,-22.8 -0.4,-22.1C-0.2,-21.8 0,-21.5 0,-21.5C0,-21.5 5.1,-12.6 -0.7,1.6C-3,7.4 -3.6,14.9 -1.7,20.5C-1.4,21.2 -1.6,22.1 -2.2,22.6C-2.8,23.1 -3.7,23.2 -4.4,22.9C-10,20.2 -18.1,13.9 -18.1,0.8C-18.1,-11 -11.3,-21 -2.5,-23Z"/>
        </g>
        <!-- Cyan shadow - left -->
        <g transform="translate(-7, 0)">
          <path fill="#00FFFF" d="M-2.5,-23C-1.7,-23.2 -0.8,-22.8 -0.4,-22.1C-0.2,-21.8 0,-21.5 0,-21.5C0,-21.5 5.1,-12.6 -0.7,1.6C-3,7.4 -3.6,14.9 -1.7,20.5C-1.4,21.2 -1.6,22.1 -2.2,22.6C-2.8,23.1 -3.7,23.2 -4.4,22.9C-10,20.2 -18.1,13.9 -18.1,0.8C-18.1,-11 -11.3,-21 -2.5,-23Z"/>
        </g>
        <!-- Yellow shadow - left -->
        <g transform="translate(-3, 6)">
          <path fill="#FFFF00" d="M-2.5,-23C-1.7,-23.2 -0.8,-22.8 -0.4,-22.1C-0.2,-21.8 0,-21.5 0,-21.5C0,-21.5 5.1,-12.6 -0.7,1.6C-3,7.4 -3.6,14.9 -1.7,20.5C-1.4,21.2 -1.6,22.1 -2.2,22.6C-2.8,23.1 -3.7,23.2 -4.4,22.9C-10,20.2 -18.1,13.9 -18.1,0.8C-18.1,-11 -11.3,-21 -2.5,-23Z"/>
        </g>
        <!-- Black (key) -->
        <path fill="#1a1a1a" d="M-2.5,-23C-1.7,-23.2 -0.8,-22.8 -0.4,-22.1C-0.2,-21.8 0,-21.5 0,-21.5C0,-21.5 5.1,-12.6 -0.7,1.6C-3,7.4 -3.6,14.9 -1.7,20.5C-1.4,21.2 -1.6,22.1 -2.2,22.6C-2.8,23.1 -3.7,23.2 -4.4,22.9C-10,20.2 -18.1,13.9 -18.1,0.8C-18.1,-11 -11.3,-21 -2.5,-23Z"/>
      </g>

      <!-- RIGHT BEAN HALF - shadows go outward (right) -->
      <g transform="translate(1, 0)">
        <!-- Magenta shadow - upper right -->
        <g transform="translate(2, -5)">
          <path fill="#FF00FF" d="M2.5,23C1.7,23.2 0.8,22.8 0.4,22.1C0.2,21.8 0,21.5 0,21.5C0,21.5 -5.1,12.6 0.7,-1.6C3,-7.4 3.6,-14.9 1.7,-20.5C1.4,-21.2 1.6,-22.1 2.2,-22.6C2.8,-23.1 3.7,-23.2 4.4,-22.9C10,-20.2 18.1,-13.9 18.1,-0.8C18.1,11 11.3,21 2.5,23Z"/>
        </g>
        <!-- Cyan shadow - right -->
        <g transform="translate(7, 0)">
          <path fill="#00FFFF" d="M2.5,23C1.7,23.2 0.8,22.8 0.4,22.1C0.2,21.8 0,21.5 0,21.5C0,21.5 -5.1,12.6 0.7,-1.6C3,-7.4 3.6,-14.9 1.7,-20.5C1.4,-21.2 1.6,-22.1 2.2,-22.6C2.8,-23.1 3.7,-23.2 4.4,-22.9C10,-20.2 18.1,-13.9 18.1,-0.8C18.1,11 11.3,21 2.5,23Z"/>
        </g>
        <!-- Yellow shadow - right -->
        <g transform="translate(3, 6)">
          <path fill="#FFFF00" d="M2.5,23C1.7,23.2 0.8,22.8 0.4,22.1C0.2,21.8 0,21.5 0,21.5C0,21.5 -5.1,12.6 0.7,-1.6C3,-7.4 3.6,-14.9 1.7,-20.5C1.4,-21.2 1.6,-22.1 2.2,-22.6C2.8,-23.1 3.7,-23.2 4.4,-22.9C10,-20.2 18.1,-13.9 18.1,-0.8C18.1,11 11.3,21 2.5,23Z"/>
        </g>
        <!-- Black (key) -->
        <path fill="#1a1a1a" d="M2.5,23C1.7,23.2 0.8,22.8 0.4,22.1C0.2,21.8 0,21.5 0,21.5C0,21.5 -5.1,12.6 0.7,-1.6C3,-7.4 3.6,-14.9 1.7,-20.5C1.4,-21.2 1.6,-22.1 2.2,-22.6C2.8,-23.1 3.7,-23.2 4.4,-22.9C10,-20.2 18.1,-13.9 18.1,-0.8C18.1,11 11.3,21 2.5,23Z"/>
      </g>

    </g>
  </g>


    </svg>
  </g>
  <defs>
    <radialGradient id="vignette" cx="50%" cy="50%" r="65%">
      <stop offset="60%" stop-color="white" stop-opacity="0"/>
      <stop offset="100%" stop-color="white" stop-opacity="0.95"/>
    </radialGradient>
  </defs>
  <rect width="100%" height="100%" fill="url(#vignette)"/>
</svg>