<svg fill="#000000" viewBox="0 0 52 52" xmlns="http://www.w3.org/2000/svg">
  <g transform="translate(26, 26)">
    <g transform="rotate(30)">
      <path d="M-2.5,-23C-1.7,-23.2 -0.8,-22.8 -0.4,-22.1C-0.2,-21.8 0,-21.5 0,-21.5C0,-21.5 5.1,-12.6 -0.7,1.6C-3,7.4 -3.6,14.9 -1.7,20.5C-1.4,21.2 -1.6,22.1 -2.2,22.6C-2.8,23.1 -3.7,23.2 -4.4,22.9C-10,20.2 -18.1,13.9 -18.1,0.8C-18.1,-11 -11.3,-21 -2.5,-23Z"/>
      <path d="M2.5,23C1.7,23.2 0.8,22.8 0.4,22.1C0.2,21.8 0,21.5 0,21.5C0,21.5 -5.1,12.6 0.7,-1.6C3,-7.4 3.6,-14.9 1.7,-20.5C1.4,-21.2 1.6,-22.1 2.2,-22.6C2.8,-23.1 3.7,-23.2 4.4,-22.9C10,-20.2 18.1,-13.9 18.1,-0.8C18.1,11 11.3,21 2.5,23Z"/>
    </g>
  </g>
</svg>
