<svg width="1395" height="16" viewBox="0 0 1395 16" fill="none" xmlns="http://www.w3.org/2000/svg">
<g clip-path="url(#clip0)">
<path d="M-29.6016 0L-15.7945 9.8184C-10.5901 13.5193 -3.61306 13.5193 1.59134 9.8184L6.70554 6.1816C11.9099 2.4807 18.8869 2.4807 24.0913 6.1816L29.2055 9.8184C34.4099 13.5193 41.3869 13.5193 46.5913 9.8184L51.7055 6.1816C56.9099 2.4807 63.8869 2.4807 69.0913 6.1816L74.2054 9.8184C79.4104 13.5193 86.3864 13.5193 91.5914 9.8184L96.7054 6.1816C101.91 2.4807 108.886 2.4807 114.091 6.1816L119.205 9.8184C124.41 13.5193 131.386 13.5193 136.591 9.8184L141.705 6.1816C146.91 2.4807 153.886 2.4807 159.091 6.1816L164.205 9.8184C169.41 13.5193 176.386 13.5193 181.591 9.8184L186.705 6.1816C191.91 2.4807 198.886 2.4807 204.091 6.1816L209.205 9.8184C214.41 13.5193 221.386 13.5193 226.591 9.8184L231.705 6.1816C236.91 2.4807 243.886 2.4807 249.091 6.1816L254.205 9.8184C259.41 13.5193 266.386 13.5193 271.591 9.8184L276.705 6.1816C281.91 2.4807 288.886 2.4807 294.091 6.1816L299.205 9.8184C304.41 13.5193 311.386 13.5193 316.591 9.8184L321.705 6.1816C326.91 2.4807 333.886 2.4807 339.091 6.1816L344.205 9.8184C349.41 13.5193 356.386 13.5193 361.591 9.8184L366.705 6.1816C371.91 2.4807 378.886 2.4807 384.091 6.1816L389.205 9.8184C394.41 13.5193 401.386 13.5193 406.591 9.8184L411.705 6.1816C416.91 2.4807 423.886 2.4807 429.091 6.1816L434.205 9.8184C439.41 13.5193 446.386 13.5193 451.591 9.8184L456.705 6.1816C461.91 2.4807 468.886 2.4807 474.091 6.1816L479.205 9.8184C484.41 13.5193 491.386 13.5193 496.591 9.8184L501.705 6.1816C506.91 2.4807 513.886 2.4807 519.091 6.1816L524.205 9.8184C529.41 13.5193 536.386 13.5193 541.591 9.8184L546.705 6.1816C551.91 2.4807 558.886 2.4807 564.091 6.1816L569.205 9.8184C574.41 13.5193 581.386 13.5193 586.591 9.8184L591.705 6.1816C596.91 2.4807 603.886 2.4807 609.091 6.1816L614.205 9.8184C619.41 13.5193 626.386 13.5193 631.591 9.8184L636.705 6.1816C641.91 2.4807 648.886 2.4807 654.091 6.1816L659.205 9.8184C664.41 13.5193 671.386 13.5193 676.591 9.8184L681.705 6.1816C686.91 2.4807 693.886 2.4807 699.091 6.1816L704.205 9.8184C709.41 13.5193 716.386 13.5193 721.591 9.8184L726.705 6.1816C731.91 2.4807 738.886 2.4807 744.091 6.1816L749.205 9.8184C754.41 13.5193 761.386 13.5193 766.591 9.8184L771.705 6.1816C776.91 2.4807 783.886 2.4807 789.091 6.1816L794.205 9.8184C799.41 13.5193 806.386 13.5193 811.591 9.8184L816.705 6.1816C821.91 2.4807 828.886 2.4807 834.091 6.1816L839.205 9.8184C844.41 13.5193 851.386 13.5193 856.591 9.8184L861.705 6.1816C866.91 2.4807 873.886 2.4807 879.091 6.1816L884.205 9.8184C889.41 13.5193 896.386 13.5193 901.591 9.8184L906.705 6.1816C911.91 2.4807 918.886 2.4807 924.091 6.1816L929.205 9.8184C934.41 13.5193 941.386 13.5193 946.591 9.8184L951.705 6.1816C956.91 2.4807 963.886 2.4807 969.091 6.1816L974.208 9.8184C979.408 13.5193 986.388 13.5193 991.588 9.8184L996.708 6.1816C1001.91 2.4807 1008.89 2.4807 1014.09 6.1816L1019.21 9.8184C1024.41 13.5193 1031.39 13.5193 1036.59 9.8184L1041.71 6.1816C1046.91 2.4807 1053.89 2.4807 1059.09 6.1816L1064.21 9.8184C1069.41 13.5193 1076.39 13.5193 1081.59 9.8184L1086.71 6.1816C1091.91 2.4807 1098.89 2.4807 1104.09 6.1816L1109.21 9.8184C1114.41 13.5193 1121.39 13.5193 1126.59 9.8184L1131.71 6.1816C1136.91 2.4807 1143.89 2.4807 1149.09 6.1816L1154.21 9.8184C1159.41 13.5193 1166.39 13.5193 1171.59 9.8184L1176.71 6.1816C1181.91 2.4807 1188.89 2.4807 1194.09 6.1816L1199.21 9.8184C1204.41 13.5193 1211.39 13.5193 1216.59 9.8184L1221.71 6.1816C1226.91 2.4807 1233.89 2.4807 1239.09 6.1816L1244.21 9.8184C1249.41 13.5193 1256.39 13.5193 1261.59 9.8184L1266.71 6.1816C1271.91 2.4807 1278.89 2.4807 1284.09 6.1816L1289.21 9.8184C1294.41 13.5193 1301.39 13.5193 1306.59 9.8184L1311.71 6.1816C1316.91 2.4807 1323.89 2.4807 1329.09 6.1816L1334.21 9.8184C1339.41 13.5193 1346.39 13.5193 1351.59 9.8184L1356.71 6.1816C1361.91 2.4807 1368.89 2.4807 1374.09 6.1816L1379.21 9.8184C1384.41 13.5193 1391.39 13.5193 1396.59 9.8184L1410.4 0" fill="#8dfaff"/>
<path d="M-29.6016 0L-15.7945 9.8184C-10.5901 13.5193 -3.61306 13.5193 1.59134 9.8184L6.70554 6.1816C11.9099 2.4807 18.8869 2.4807 24.0913 6.1816L29.2055 9.8184C34.4099 13.5193 41.3869 13.5193 46.5913 9.8184L51.7055 6.1816C56.9099 2.4807 63.8869 2.4807 69.0913 6.1816L74.2054 9.8184C79.4104 13.5193 86.3864 13.5193 91.5914 9.8184L96.7054 6.1816C101.91 2.4807 108.886 2.4807 114.091 6.1816L119.205 9.8184C124.41 13.5193 131.386 13.5193 136.591 9.8184L141.705 6.1816C146.91 2.4807 153.886 2.4807 159.091 6.1816L164.205 9.8184C169.41 13.5193 176.386 13.5193 181.591 9.8184L186.705 6.1816C191.91 2.4807 198.886 2.4807 204.091 6.1816L209.205 9.8184C214.41 13.5193 221.386 13.5193 226.591 9.8184L231.705 6.1816C236.91 2.4807 243.886 2.4807 249.091 6.1816L254.205 9.8184C259.41 13.5193 266.386 13.5193 271.591 9.8184L276.705 6.1816C281.91 2.4807 288.886 2.4807 294.091 6.1816L299.205 9.8184C304.41 13.5193 311.386 13.5193 316.591 9.8184L321.705 6.1816C326.91 2.4807 333.886 2.4807 339.091 6.1816L344.205 9.8184C349.41 13.5193 356.386 13.5193 361.591 9.8184L366.705 6.1816C371.91 2.4807 378.886 2.4807 384.091 6.1816L389.205 9.8184C394.41 13.5193 401.386 13.5193 406.591 9.8184L411.705 6.1816C416.91 2.4807 423.886 2.4807 429.091 6.1816L434.205 9.8184C439.41 13.5193 446.386 13.5193 451.591 9.8184L456.705 6.1816C461.91 2.4807 468.886 2.4807 474.091 6.1816L479.205 9.8184C484.41 13.5193 491.386 13.5193 496.591 9.8184L501.705 6.1816C506.91 2.4807 513.886 2.4807 519.091 6.1816L524.205 9.8184C529.41 13.5193 536.386 13.5193 541.591 9.8184L546.705 6.1816C551.91 2.4807 558.886 2.4807 564.091 6.1816L569.205 9.8184C574.41 13.5193 581.386 13.5193 586.591 9.8184L591.705 6.1816C596.91 2.4807 603.886 2.4807 609.091 6.1816L614.205 9.8184C619.41 13.5193 626.386 13.5193 631.591 9.8184L636.705 6.1816C641.91 2.4807 648.886 2.4807 654.091 6.1816L659.205 9.8184C664.41 13.5193 671.386 13.5193 676.591 9.8184L681.705 6.1816C686.91 2.4807 693.886 2.4807 699.091 6.1816L704.205 9.8184C709.41 13.5193 716.386 13.5193 721.591 9.8184L726.705 6.1816C731.91 2.4807 738.886 2.4807 744.091 6.1816L749.205 9.8184C754.41 13.5193 761.386 13.5193 766.591 9.8184L771.705 6.1816C776.91 2.4807 783.886 2.4807 789.091 6.1816L794.205 9.8184C799.41 13.5193 806.386 13.5193 811.591 9.8184L816.705 6.1816C821.91 2.4807 828.886 2.4807 834.091 6.1816L839.205 9.8184C844.41 13.5193 851.386 13.5193 856.591 9.8184L861.705 6.1816C866.91 2.4807 873.886 2.4807 879.091 6.1816L884.205 9.8184C889.41 13.5193 896.386 13.5193 901.591 9.8184L906.705 6.1816C911.91 2.4807 918.886 2.4807 924.091 6.1816L929.205 9.8184C934.41 13.5193 941.386 13.5193 946.591 9.8184L951.705 6.1816C956.91 2.4807 963.886 2.4807 969.091 6.1816L974.208 9.8184C979.408 13.5193 986.388 13.5193 991.588 9.8184L996.708 6.1816C1001.91 2.4807 1008.89 2.4807 1014.09 6.1816L1019.21 9.8184C1024.41 13.5193 1031.39 13.5193 1036.59 9.8184L1041.71 6.1816C1046.91 2.4807 1053.89 2.4807 1059.09 6.1816L1064.21 9.8184C1069.41 13.5193 1076.39 13.5193 1081.59 9.8184L1086.71 6.1816C1091.91 2.4807 1098.89 2.4807 1104.09 6.1816L1109.21 9.8184C1114.41 13.5193 1121.39 13.5193 1126.59 9.8184L1131.71 6.1816C1136.91 2.4807 1143.89 2.4807 1149.09 6.1816L1154.21 9.8184C1159.41 13.5193 1166.39 13.5193 1171.59 9.8184L1176.71 6.1816C1181.91 2.4807 1188.89 2.4807 1194.09 6.1816L1199.21 9.8184C1204.41 13.5193 1211.39 13.5193 1216.59 9.8184L1221.71 6.1816C1226.91 2.4807 1233.89 2.4807 1239.09 6.1816L1244.21 9.8184C1249.41 13.5193 1256.39 13.5193 1261.59 9.8184L1266.71 6.1816C1271.91 2.4807 1278.89 2.4807 1284.09 6.1816L1289.21 9.8184C1294.41 13.5193 1301.39 13.5193 1306.59 9.8184L1311.71 6.1816C1316.91 2.4807 1323.89 2.4807 1329.09 6.1816L1334.21 9.8184C1339.41 13.5193 1346.39 13.5193 1351.59 9.8184L1356.71 6.1816C1361.91 2.4807 1368.89 2.4807 1374.09 6.1816L1379.21 9.8184C1384.41 13.5193 1391.39 13.5193 1396.59 9.8184L1410.4 0V65.7131H-29.6016V0Z" stroke="#8dfaff" stroke-width="2"/>
<path d="M-21.6016 0L-7.79446 9.8184C-2.59006 13.5193 4.38694 13.5193 9.59134 9.8184L14.7055 6.1816C19.9099 2.4807 26.8869 2.4807 32.0913 6.1816L37.2055 9.8184C42.4099 13.5193 49.3869 13.5193 54.5913 9.8184L59.7055 6.1816C64.9099 2.4807 71.8869 2.4807 77.0913 6.1816L82.2054 9.8184C87.4104 13.5193 94.3864 13.5193 99.5914 9.8184L104.705 6.1816C109.91 2.4807 116.886 2.4807 122.091 6.1816L127.205 9.8184C132.41 13.5193 139.386 13.5193 144.591 9.8184L149.705 6.1816C154.91 2.4807 161.886 2.4807 167.091 6.1816L172.205 9.8184C177.41 13.5193 184.386 13.5193 189.591 9.8184L194.705 6.1816C199.91 2.4807 206.886 2.4807 212.091 6.1816L217.205 9.8184C222.41 13.5193 229.386 13.5193 234.591 9.8184L239.705 6.1816C244.91 2.4807 251.886 2.4807 257.091 6.1816L262.205 9.8184C267.41 13.5193 274.386 13.5193 279.591 9.8184L284.705 6.1816C289.91 2.4807 296.886 2.4807 302.091 6.1816L307.205 9.8184C312.41 13.5193 319.386 13.5193 324.591 9.8184L329.705 6.1816C334.91 2.4807 341.886 2.4807 347.091 6.1816L352.205 9.8184C357.41 13.5193 364.386 13.5193 369.591 9.8184L374.705 6.1816C379.91 2.4807 386.886 2.4807 392.091 6.1816L397.205 9.8184C402.41 13.5193 409.386 13.5193 414.591 9.8184L419.705 6.1816C424.91 2.4807 431.886 2.4807 437.091 6.1816L442.205 9.8184C447.41 13.5193 454.386 13.5193 459.591 9.8184L464.705 6.1816C469.91 2.4807 476.886 2.4807 482.091 6.1816L487.205 9.8184C492.41 13.5193 499.386 13.5193 504.591 9.8184L509.705 6.1816C514.91 2.4807 521.886 2.4807 527.091 6.1816L532.205 9.8184C537.41 13.5193 544.386 13.5193 549.591 9.8184L554.705 6.1816C559.91 2.4807 566.886 2.4807 572.091 6.1816L577.205 9.8184C582.41 13.5193 589.386 13.5193 594.591 9.8184L599.705 6.1816C604.91 2.4807 611.886 2.4807 617.091 6.1816L622.205 9.8184C627.41 13.5193 634.386 13.5193 639.591 9.8184L644.705 6.1816C649.91 2.4807 656.886 2.4807 662.091 6.1816L667.205 9.8184C672.41 13.5193 679.386 13.5193 684.591 9.8184L689.705 6.1816C694.91 2.4807 701.886 2.4807 707.091 6.1816L712.205 9.8184C717.41 13.5193 724.386 13.5193 729.591 9.8184L734.705 6.1816C739.91 2.4807 746.886 2.4807 752.091 6.1816L757.205 9.8184C762.41 13.5193 769.386 13.5193 774.591 9.8184L779.705 6.1816C784.91 2.4807 791.886 2.4807 797.091 6.1816L802.205 9.8184C807.41 13.5193 814.386 13.5193 819.591 9.8184L824.705 6.1816C829.91 2.4807 836.886 2.4807 842.091 6.1816L847.205 9.8184C852.41 13.5193 859.386 13.5193 864.591 9.8184L869.705 6.1816C874.91 2.4807 881.886 2.4807 887.091 6.1816L892.205 9.8184C897.41 13.5193 904.386 13.5193 909.591 9.8184L914.705 6.1816C919.91 2.4807 926.886 2.4807 932.091 6.1816L937.205 9.8184C942.41 13.5193 949.386 13.5193 954.591 9.8184L959.705 6.1816C964.91 2.4807 971.886 2.4807 977.091 6.1816L982.208 9.8184C987.408 13.5193 994.388 13.5193 999.588 9.8184L1004.71 6.1816C1009.91 2.4807 1016.89 2.4807 1022.09 6.1816L1027.21 9.8184C1032.41 13.5193 1039.39 13.5193 1044.59 9.8184L1049.71 6.1816C1054.91 2.4807 1061.89 2.4807 1067.09 6.1816L1072.21 9.8184C1077.41 13.5193 1084.39 13.5193 1089.59 9.8184L1094.71 6.1816C1099.91 2.4807 1106.89 2.4807 1112.09 6.1816L1117.21 9.8184C1122.41 13.5193 1129.39 13.5193 1134.59 9.8184L1139.71 6.1816C1144.91 2.4807 1151.89 2.4807 1157.09 6.1816L1162.21 9.8184C1167.41 13.5193 1174.39 13.5193 1179.59 9.8184L1184.71 6.1816C1189.91 2.4807 1196.89 2.4807 1202.09 6.1816L1207.21 9.8184C1212.41 13.5193 1219.39 13.5193 1224.59 9.8184L1229.71 6.1816C1234.91 2.4807 1241.89 2.4807 1247.09 6.1816L1252.21 9.8184C1257.41 13.5193 1264.39 13.5193 1269.59 9.8184L1274.71 6.1816C1279.91 2.4807 1286.89 2.4807 1292.09 6.1816L1297.21 9.8184C1302.41 13.5193 1309.39 13.5193 1314.59 9.8184L1319.71 6.1816C1324.91 2.4807 1331.89 2.4807 1337.09 6.1816L1342.21 9.8184C1347.41 13.5193 1354.39 13.5193 1359.59 9.8184L1364.71 6.1816C1369.91 2.4807 1376.89 2.4807 1382.09 6.1816L1387.21 9.8184C1392.41 13.5193 1399.39 13.5193 1404.59 9.8184L1418.4 0" stroke="black" stroke-width="2"/>
</g>
<defs>
<clipPath id="clip0">
<rect width="1395" height="16" fill="white"/>
</clipPath>
</defs>
</svg>
